<svg id="Capa_1" enable-background="new 0 0 512.282 512.282" height="512" viewBox="0 0 512.282 512.282" width="512" xmlns="http://www.w3.org/2000/svg"><g><path d="m271.282 403.865v-.007c-35.026-9.952-70.167 16.531-70.167 53.083 0 30.419 24.748 55.167 55.167 55.167s55.167-24.748 55.167-55.167c0-25.219-17.017-46.524-40.167-53.076z"/><path d="m457.116 401.775c-25.218 0-46.523 17.015-53.076 40.163h-28.327v-72.7c0-17.5-14.23-31.73-31.73-31.73h-42.7v30h42.7c.96 0 1.73.78 1.73 1.73v74.88c0 15.34 12.48 27.82 27.82 27.82h30.505c6.551 23.151 27.858 40.17 53.078 40.17 30.419 0 55.166-24.748 55.166-55.167s-24.747-55.166-55.166-55.166z"/><path d="m104.941 296.162c.345 0-3.341.008 136.341-.289v77.225c9.601-1.715 19.892-1.806 30 0 0-3.853 0-65.009 0-77.289l136.972-.291c56.319-.117 104.028-45.054 104.028-103.678 0-69.401-60.754-122.017-126.669-109.606-14.847-21.437-39.227-34.27-65.994-33.921-47.258-75.206-161.927-59.132-186.688 26.188-91.517-18.317-161.194 80.758-121.57 163.4 17.011 35.412 53.724 58.263 93.58 58.261z"/><path d="m211.282 337.508h-42.7c-17.5 0-31.73 14.23-31.73 31.73v72.7h-28.327c-6.553-23.148-27.858-40.163-53.076-40.163-30.419 0-55.167 24.747-55.167 55.166s24.748 55.167 55.167 55.167c25.22 0 46.527-17.019 53.078-40.17h30.505c15.34 0 27.82-12.48 27.82-27.82v-74.88c0-.95.77-1.73 1.73-1.73h42.7z"/></g></svg>