<svg height="464pt" viewBox="0 0 464 464" width="464pt" xmlns="http://www.w3.org/2000/svg"><path d="m0 400h16.367188c-.199219-2.382812-.367188-4.777344-.367188-7.207031v-1.578125c0-48.085938 39.128906-87.207032 87.207031-87.207032 15.160157 0 30.128907 3.976563 43.273438 11.496094l85.519531 48.855469 85.511719-48.863281c13.152343-7.511719 28.121093-11.496094 43.273437-11.496094 48.085938 0 87.214844 39.128906 87.214844 87.214844v1.578125c0 2.429687-.167969 4.824219-.367188 7.207031h16.367188v-336h-464zm240-320h208v208h-208zm-224 0h208v208h-208zm0 0"/><path d="m32 272h176v-176h-176zm160-16h-16v-16h16zm0-64h-112v-16h112zm0-32h-16v-16h16zm-144-48h144v16h-144zm0 32h112v16h-112zm0 32h16v16h-16zm0 32h144v16h-144zm0 32h112v16h-112zm0 0"/><path d="m256 272h176v-176h-176zm160-16h-16v-16h16zm0-96h-112v-16h112zm-144-48h144v16h-144zm0 32h16v16h-16zm0 32h144v16h-144zm0 32h144v16h-144zm0 32h112v16h-112zm0 0"/><path d="m360.792969 320c-12.378907 0-24.59375 3.238281-35.335938 9.382812l-194.847656 111.34375c-8.320313 4.761719-17.800781 7.273438-27.402344 7.273438-30.4375 0-55.207031-24.761719-55.207031-55.207031v-1.578125c0-30.445313 24.769531-55.207032 55.207031-55.207032 9.601563 0 19.082031 2.511719 27.402344 7.273438l69.152344 39.511719 16.117187-9.21875-77.328125-44.183594c-10.742187-6.144531-22.957031-9.382813-35.335937-9.382813-39.269532-.007812-71.214844 31.9375-71.214844 71.207032v1.578125c0 39.261719 31.945312 71.207031 71.207031 71.207031 12.378907 0 24.59375-3.238281 35.335938-9.382812l194.839843-111.34375c8.320313-4.761719 17.800782-7.273438 27.402344-7.273438 30.445313 0 55.207032 24.769531 55.207032 55.207031v1.578125c0 30.445313-24.769532 55.207032-55.207032 55.207032-9.601562 0-19.082031-2.511719-27.402344-7.273438l-69.144531-39.496094-16.117187 9.210938 77.328125 44.183594c10.742187 6.144531 22.957031 9.382812 35.335937 9.382812 39.261719 0 71.207032-31.945312 71.207032-71.207031v-1.578125c.007812-39.269532-31.9375-71.214844-71.199219-71.214844zm0 0"/><path d="m0 0v48h464v-48zm32 32h-16v-16h16zm32 0h-16v-16h16zm32 0h-16v-16h16zm0 0"/><path d="m103.207031 352c-21.613281 0-39.207031 17.59375-39.207031 39.207031v1.578125c0 2.472656.289062 4.863282.726562 7.207032h104.90625l14-8-60.960937-34.832032c-5.902344-3.367187-12.640625-5.160156-19.464844-5.160156zm0 0"/><path d="m400 392.792969v-1.578125c0-21.613282-17.59375-39.207032-39.207031-39.207032-6.824219 0-13.554688 1.792969-19.464844 5.167969l-60.960937 34.832031 14 8h104.90625c.4375-2.351562.726562-4.742187.726562-7.214843zm0 0"/></svg>