<?xml version="1.0" encoding="iso-8859-1"?>
<!-- Generator: Adobe Illustrator 19.0.0, SVG Export Plug-In . SVG Version: 6.00 Build 0)  -->
<svg version="1.1" id="Capa_1" xmlns="http://www.w3.org/2000/svg" xmlns:xlink="http://www.w3.org/1999/xlink" x="0px" y="0px"
	 viewBox="0 0 511.983 511.983" style="enable-background:new 0 0 511.983 511.983;" xml:space="preserve">
<g>
	<g>
		<g>
			<rect x="228.566" y="214.849" width="54.857" height="109.714"/>
			<path d="M301.709,213.452v103.956l27.429-24.382V189.497l-25.924,23.044C302.743,212.893,302.239,213.198,301.709,213.452z"/>
			<polygon points="293.663,141.706 218.326,141.706 187.469,169.134 218.326,196.563 293.663,196.563 324.52,169.134 			"/>
			<rect x="411.423" y="306.277" width="36.571" height="36.571"/>
			<rect x="411.423" y="123.42" width="36.571" height="36.571"/>
			<rect x="411.423" y="214.849" width="36.571" height="36.571"/>
			<rect x="63.994" y="123.42" width="36.571" height="219.429"/>
			<path d="M224.99,424.094c0.138,0.361,0.307,0.709,0.504,1.04h60.58c0.198-0.332,0.367-0.68,0.505-1.04l10.558-26.388h-82.705
				L224.99,424.094z"/>
			<path d="M9.137,397.706H4.441c-2.759,0.045-4.152,1.116-4.406,2.156c-0.183,0.745,0.357,1.473,1.612,2.156l40.799,22.263
				c1.103,0.573,2.329,0.866,3.571,0.853h159.69l-10.97-27.429H9.137z"/>
			<path d="M182.852,189.497v103.529l27.429,24.382V213.452c-0.53-0.254-1.034-0.559-1.504-0.911L182.852,189.497z"/>
			<path d="M507.039,397.706H316.833l-10.97,27.429h158.382c2.073,0.014,4.118-0.481,5.955-1.442l40.232-21.96
				c0.411-0.219,1.705-0.987,1.536-1.656C511.745,399.174,510.209,397.733,507.039,397.706z"/>
			<path d="M484.566,379.42V95.991c-0.005-5.047-4.096-9.138-9.143-9.143H36.566c-5.047,0.007-9.136,4.096-9.143,9.143V379.42
				h296.723H484.566z M393.137,114.277c0-5.049,4.093-9.143,9.143-9.143h54.857c2.425-0.001,4.751,0.962,6.466,2.677
				c1.715,1.715,2.678,4.041,2.677,6.466v54.857c0.001,2.425-0.962,4.751-2.677,6.466c-1.715,1.715-4.041,2.678-6.466,2.677H402.28
				c-5.049,0-9.143-4.093-9.143-9.143V114.277z M393.137,205.706c0-5.049,4.093-9.143,9.143-9.143h54.857
				c2.425-0.001,4.751,0.962,6.466,2.677c1.715,1.715,2.678,4.041,2.677,6.466v54.857c0.001,2.425-0.962,4.751-2.677,6.466
				c-1.715,1.715-4.041,2.678-6.466,2.677H402.28c-5.049,0-9.143-4.093-9.143-9.143V205.706z M393.137,297.134
				c0-5.049,4.093-9.143,9.143-9.143h54.857c2.425-0.001,4.751,0.962,6.466,2.677c1.715,1.715,2.678,4.041,2.677,6.466v54.857
				c0.001,2.425-0.962,4.751-2.677,6.466c-1.715,1.715-4.041,2.678-6.466,2.677H402.28c-5.049,0-9.143-4.093-9.143-9.143V297.134z
				 M118.852,351.991c0,5.049-4.093,9.143-9.143,9.143H54.852c-5.049,0-9.143-4.093-9.143-9.143V114.277
				c0-5.049,4.093-9.143,9.143-9.143h54.857c5.049,0,9.143,4.093,9.143,9.143V351.991z M297.137,342.849h-82.286
				c-2.24,0-4.401-0.821-6.076-2.308l-41.143-36.571c-0.071-0.063-0.096-0.154-0.164-0.218c-0.454-0.483-0.853-1.014-1.19-1.584
				c-0.728-0.755-1.173-1.739-1.258-2.785c-0.208-0.645-0.343-1.312-0.402-1.988c-0.003-0.092-0.052-0.168-0.052-0.26v-128
				c0.177-2.477,1.206-4.816,2.911-6.622c0.065-0.062,0.089-0.153,0.156-0.213l41.143-36.571c1.675-1.487,3.836-2.308,6.076-2.308
				h82.286c2.24,0,4.401,0.821,6.076,2.308l41.143,36.571c0.068,0.06,0.091,0.151,0.156,0.213c1.849,1.707,2.903,4.106,2.911,6.622
				v128c0,0.093-0.05,0.168-0.052,0.261c-0.059,0.675-0.194,1.342-0.402,1.988c-0.086,1.046-0.53,2.029-1.258,2.785
				c-0.338,0.57-0.737,1.101-1.19,1.584c-0.069,0.065-0.093,0.155-0.164,0.218l-41.143,36.571
				C301.539,342.028,299.377,342.849,297.137,342.849z"/>
		</g>
	</g>
</g>
<g>
</g>
<g>
</g>
<g>
</g>
<g>
</g>
<g>
</g>
<g>
</g>
<g>
</g>
<g>
</g>
<g>
</g>
<g>
</g>
<g>
</g>
<g>
</g>
<g>
</g>
<g>
</g>
<g>
</g>
</svg>
