<?xml version="1.0" encoding="iso-8859-1"?>
<!-- Generator: Adobe Illustrator 19.0.0, SVG Export Plug-In . SVG Version: 6.00 Build 0)  -->
<svg version="1.1" id="Capa_1" xmlns="http://www.w3.org/2000/svg" xmlns:xlink="http://www.w3.org/1999/xlink" x="0px" y="0px"
	 viewBox="0 0 512 512" style="enable-background:new 0 0 512 512;" xml:space="preserve">
<path style="fill:#78D2FA;" d="M10,428v14c0,22.091,17.909,40,40,40h412c22.091,0,40-17.909,40-40v-14H10z"/>
<path style="fill:#F0F0FA;" d="M71,124.012h-4c-22.091,0-40,17.909-40,40v262.421c0,0.872,0.707,1.579,1.579,1.579h454.842
	c0.872,0,1.579-0.707,1.579-1.579V164.012c0-22.091-17.909-40-40-40h-5.833C439.167,124.012,71,124.012,71,124.012z"/>
<path style="fill:#FFFFFF;" d="M74,342V62c0-17.673,14.327-32,32-32h300c17.673,0,32,14.327,32,32v280c0,17.673-14.327,32-32,32H106
	C88.327,374,74,359.673,74,342z"/>
<path style="fill:#FF5A5A;" d="M438,62c0-17.673-14.327-32-32-32H106c-17.673,0-32,14.327-32,32v40h364V62z"/>
<path style="fill:#231F20;" d="M82.141,102h351.832"/>
<path d="M502,418h-7V164.012c0-26.562-20.822-48.344-47-49.902V62c0-23.159-18.841-42-42-42H106c-23.159,0-42,18.841-42,42v52.11
	c-26.178,1.558-47,23.34-47,49.902V212c0,5.523,4.478,10,10,10s10-4.477,10-10v-47.987c0-15.529,11.861-28.34,27-29.85V342
	c0,23.159,18.841,42,42,42h300c23.159,0,42-18.841,42-42V134.163c15.139,1.51,27,14.32,27,29.85V418H37V293.75
	c0-5.523-4.478-10-10-10s-10,4.477-10,10V418h-7c-5.522,0-10,4.477-10,10v14c0,27.57,22.43,50,50,50h412c27.57,0,50-22.43,50-50v-14
	C512,422.477,507.522,418,502,418z M106,40h300c12.131,0,22,9.869,22,22v30H84V62C84,49.869,93.869,40,106,40z M406,364H106
	c-12.131,0-22-9.869-22-22V112h344v230C428,354.131,418.131,364,406,364z M492,442c0,16.542-13.458,30-30,30H50
	c-16.542,0-30-13.458-30-30v-4h6.758c0.081,0.002,0.16,0.012,0.242,0.012h458c0.082,0,0.161-0.01,0.242-0.012H492V442z"/>
<path d="M274,445h-36.083c-5.522,0-10,4.477-10,10s4.478,10,10,10H274c5.522,0,10-4.477,10-10S279.522,445,274,445z"/>
<path d="M27,261.5c2.63,0,5.21-1.07,7.069-2.93c1.86-1.86,2.931-4.44,2.931-7.07s-1.07-5.21-2.931-7.07
	c-1.859-1.86-4.439-2.93-7.069-2.93s-5.21,1.07-7.07,2.93c-1.86,1.86-2.93,4.44-2.93,7.07s1.069,5.21,2.93,7.07
	S24.37,261.5,27,261.5z"/>
<path d="M230.894,76h167.155c5.522,0,10-4.477,10-10s-4.478-10-10-10H230.894c-5.522,0-10,4.477-10,10S225.371,76,230.894,76z"/>
<path d="M143.54,76c2.64,0,5.21-1.07,7.069-2.93c1.87-1.86,2.94-4.44,2.94-7.07c0-2.63-1.07-5.21-2.94-7.07
	C148.75,57.07,146.17,56,143.54,56c-2.62,0-5.2,1.07-7.07,2.93c-1.86,1.86-2.93,4.44-2.93,7.07c0,2.63,1.069,5.21,2.93,7.07
	S140.91,76,143.54,76z"/>
<path d="M113.95,76c2.63,0,5.21-1.07,7.069-2.93c1.86-1.86,2.931-4.44,2.931-7.07c0-2.63-1.07-5.21-2.931-7.07
	C119.16,57.07,116.58,56,113.95,56c-2.631,0-5.21,1.07-7.07,2.93s-2.93,4.44-2.93,7.07c0,2.63,1.069,5.21,2.93,7.07
	S111.319,76,113.95,76z"/>
<path d="M173.14,76c2.63,0,5.21-1.07,7.07-2.93c1.859-1.86,2.93-4.44,2.93-7.07c0-2.63-1.07-5.21-2.93-7.07
	c-1.86-1.86-4.44-2.93-7.07-2.93s-5.21,1.07-7.07,2.93c-1.859,1.86-2.93,4.44-2.93,7.07c0,2.63,1.07,5.21,2.93,7.07
	C167.93,74.93,170.51,76,173.14,76z"/>
<path d="M188.132,228.723c1.953,1.953,4.512,2.929,7.071,2.929s5.118-0.976,7.071-2.929c3.905-3.905,3.905-10.237,0-14.143
	L175.6,187.906l26.675-26.675c3.905-3.905,3.905-10.237,0-14.143c-3.906-3.905-10.236-3.905-14.143,0l-33.746,33.746
	c-3.905,3.905-3.905,10.237,0,14.143L188.132,228.723z"/>
<path d="M309.726,228.723c1.953,1.953,4.512,2.929,7.071,2.929s5.118-0.976,7.071-2.929l33.746-33.746
	c3.905-3.905,3.905-10.237,0-14.143l-33.746-33.746c-3.906-3.905-10.236-3.905-14.143,0c-3.905,3.905-3.905,10.237,0,14.143
	l26.675,26.675l-26.675,26.675C305.82,218.486,305.82,224.818,309.726,228.723z"/>
<path d="M227.109,237.067c1.592,0.935,3.335,1.38,5.057,1.38c3.429,0,6.769-1.765,8.631-4.935l47.648-81.08
	c2.799-4.761,1.207-10.89-3.555-13.688c-4.762-2.797-10.89-1.207-13.688,3.555l-47.648,81.08
	C220.756,228.141,222.348,234.269,227.109,237.067z"/>
<path d="M202.212,276.012c0,5.523,4.478,10,10,10h166.256c5.522,0,10-4.477,10-10s-4.478-10-10-10H212.212
	C206.689,266.012,202.212,270.489,202.212,276.012z"/>
<path d="M124.16,286.012h48.978c5.522,0,10-4.477,10-10s-4.478-10-10-10H124.16c-5.522,0-10,4.477-10,10
	S118.638,286.012,124.16,286.012z"/>
<path d="M340.234,314.01H124.16c-5.522,0-10,4.477-10,10s4.478,10,10,10h216.074c5.522,0,10-4.477,10-10
	S345.757,314.01,340.234,314.01z"/>
<path d="M378.47,314.01c-2.64,0-5.21,1.07-7.07,2.93c-1.869,1.86-2.93,4.44-2.93,7.07s1.061,5.21,2.93,7.07
	c1.86,1.86,4.44,2.93,7.07,2.93s5.21-1.07,7.07-2.93c1.859-1.86,2.93-4.44,2.93-7.07s-1.07-5.21-2.93-7.07
	C383.68,315.08,381.1,314.01,378.47,314.01z"/>
<g>
</g>
<g>
</g>
<g>
</g>
<g>
</g>
<g>
</g>
<g>
</g>
<g>
</g>
<g>
</g>
<g>
</g>
<g>
</g>
<g>
</g>
<g>
</g>
<g>
</g>
<g>
</g>
<g>
</g>
</svg>
